<svg xmlns="http://www.w3.org/2000/svg" viewBox="0 0 647 647" xml:space="preserve"><path fill="#1B191E" d="M200 1c15.02 0 30.04 0 45.8.23 1.9.43 3.07.64 4.39 1.2 2.5.75 4.87 1.52 7.23 1.52 129.52.06 259.04.07 388.56.54 0 211.93 0 423.38.1 634.84 0 4.66-.71 6.78-6.18 6.78-211.96-.14-423.91-.13-635.88-.6L4 11.83C4 4 4 4 11.92 4c59.14 0 118.28.02 177.42-.08 2.21 0 4.42-1.2 6.99-1.87A61.5 61.5 0 0 0 200 1M44.2 47.89c-4.84-1-2.03 2.9-2.04 3.9C42 233.06 42 414.33 42 595.6c0 1.17-.32 2.5.12 3.46.52 1.12 1.73 1.93 3.2 3.46 1.85.45 3.7 1.29 5.56 1.3 47.5.06 94.99.05 142.48.04 6.8 0 6.8-.03 6.8-6.49V50.95c0-2.66.5-5.52-3.32-7-1.83-.65-3.67-1.86-5.5-1.87-46.86-.1-93.71-.08-140.57-.08-1.32 0-2.75-.16-3.93.27-.5.19-.5 1.73-.98 3.3a5.21 5.21 0 0 1-1.67 2.32m556.64-4c-2.2-.63-4.38-1.8-6.57-1.81-113.1-.1-226.19-.08-339.28-.08-1.33 0-2.79-.32-3.96.13-1.13.43-1.96 1.65-3.6 2.94-.7 2.4-2.04 4.78-2.04 7.18-.09 180.44-.07 360.88-.07 541.32 0 10.39 0 10.38 10.24 10.38l340.88-.02c7.52 0 7.51.01 7.51-7.44V200.13l-.02-148.95c0-2.66.46-5.5-3.09-7.28m-398.8 314.6v243.37l1.3-.01V48.16h-1.3V358.5z"/><path fill="#0E0C10" d="M4.03 645.97c211.96 0 423.91 0 635.87.14 5.47 0 6.18-2.12 6.17-6.78-.09-211.46-.08-422.91-.08-635.17 0-1.25 0-1.7.35-2.17.77-.01 1.22 0 1.66.01v646c-215.02 0-430.04 0-645.55-.33-.47-.78-.45-1.22-.1-1.67l1.68-.03z"/><path fill="#353338" d="M2.02 646c-.02.45-.04.9-.04 1.67-.31.16-.92.01-.94-.17-.08-1.33-.04-2.66-.04-4V1h198.53c-.63.34-1.73.68-3.66 1.03-63.16 0-125.48.04-187.8-.12C3.22 1.9 1.9 3.3 1.9 8.1c.11 212.63.1 425.27.11 637.9zM648 1.5c-.44.49-.89.48-2.13.49L571.15 2l-321.11.07c-1.17-.2-2.33-.4-3.77-.84C380 1 514 1 648 1.5z"/><path fill="#029F95" d="M600.9 44.63c3.48 1.04 3.02 3.89 3.02 6.55l.02 148.95v396.36c0 7.45 0 7.44-7.5 7.44-113.64 0-227.27 0-340.9.02-10.22 0-10.23.01-10.23-10.38 0-180.44-.02-360.88.07-541.32 0-2.4 1.33-4.79 2.82-7.26 1.78-.03 2.78.06 3.77.06 114.83 0 229.66 0 344.48-.02 1.49 0 2.97-.26 4.46-.4M402.59 563.38c.12-12.91.25-25.83.32-38.75 0-.57-.59-1.14-1.19-1.9 0 0-.34-.06-.43-.38 0 0-.1-.31-.78-.85-1.97-.18-3.94-.52-5.91-.53-24.3-.04-48.6-.01-72.91-.03-6.5 0-6.63-.14-6.63-6.8-.02-10.15-.02-20.3 0-30.46.01-6.47.11-6.57 6.83-6.57 21.97-.01 43.94.03 65.92-.05 2.07 0 4.14-.66 6.2-1.05 0 0 .03.01.57-.63.12-12.89.25-25.77.31-38.66 0-.55-.64-1.1-1.9-1.73-25.92-.09-51.84-.17-77.85-1.14-.03-10.14-.07-20.28-.07-30.43 0-6.14.22-6.35 6.56-6.35 24.45-.01 48.9.02 73.34-.05 2.1 0 4.19-.6 6.96-1.3.35-.9 1.01-1.78 1.02-2.67.07-11.75.1-23.5-.02-35.26-.02-1.3-1.1-2.59-2.42-4.35-1.31-.16-2.62-.47-3.93-.47-40.98-.03-81.95-.04-122.93.01-1.6 0-3.18.61-5.17 1.17-.24.2-.42.43-1.02 1.42-.17 1.15-.48 2.29-.48 3.43-.03 66.64-.05 133.28.05 199.93 0 1.76 1.24 3.53 2.3 5.36 0 0 .41-.03 1.17.39 1.31.14 2.63.4 3.95.4 40.95.03 81.9.04 122.85-.02 1.58 0 3.15-.66 4.72-1.04 0 0 .03 0 .57-.64m85.08-168.45.46-.08s.47 0 1.29.22c10.63-.07 21.26-.14 32.75-.2l36.5 7.66c0 .02.37-.58.37-1.2.06-12.49.2-24.98-.08-37.47-.03-1.55-2.16-3.93-3.77-4.42-8.09-2.42-16.22-5.06-24.54-6.3-18.15-2.7-36.4-3.57-54.65-.29-13.28 2.4-25.8 6.46-36.1 15.67-15.28 13.66-18.5 31.51-17.92 50.83.79 26 13.33 43.21 38.33 50.2 14.64 4.1 29.76 6.53 44.7 9.53 9.47 1.9 16.36 7.7 17.7 15.38 2.07 11.73-1.26 20.75-10.43 25.22-5.13 2.5-10.94 4.4-16.6 4.9-22.42 2.03-44.08-1.3-64.6-11.01-2.7-1.29-5.58-2.24-9.17-3.66 0 14.04.13 27-.07 39.96-.06 3.75 1.25 6.23 4.65 7.28 8.7 2.7 17.31 6.21 26.23 7.52 23.45 3.44 47.05 4.8 70.31-1.58 15.63-4.29 28.82-12.29 36.75-26.99 8.58-15.9 10.45-32.92 8.33-50.75-2.49-20.82-13.47-34.42-33.29-40.45-11.08-3.37-22.55-5.45-34.19-8.76-3.31-.33-6.62-.67-10.47-1-.36-.08-.7-.16-1.4-.92-2.07-.35-4.13-.7-6.65-1.07-.32-.05-.62-.13-1.19-.89-3.94-3.16-7.87-6.32-11.97-9.95-.1-.31-.13-.63.02-1.94l-.06-12.94s.1-.14.76-.4c4.26-4.99 9.2-8.9 15.84-10.3.66-.13 1.14-1.08 2.16-1.8z"/><path fill="#FDEB03" d="M196.95 44.7c3.7.73 3.22 3.6 3.22 6.25l-.01 151.98v394.45c0 6.46 0 6.5-6.8 6.5-47.5 0-94.99.01-142.48-.06-1.86 0-3.7-.84-5.71-2.03-.12-2.24-.05-3.74-.05-5.24 0-179.85 0-359.71-.02-539.57 0-2.98-.24-5.96-.36-8.94.37-.82.75-1.65 1.69-2.7 48.91-.23 97.25-.22 145.59-.24 1.64 0 3.28-.25 4.93-.4M160.6 532.2c-4.23-15.53-15.13-23.12-30.61-21.32-12.34 1.43-22.1 12.7-22.5 25.97-.38 12.56 9.3 24.54 21.3 26.38 19.71 3.03 33.4-9.88 31.81-31.03z"/><path fill="#131116" d="M2.35 646c-.34-212.63-.33-425.27-.44-637.9 0-4.8 1.32-6.2 6.15-6.19 62.33.16 124.65.11 187.44.14-1.74.66-3.95 1.86-6.16 1.87C130.2 4.02 71.06 4 11.92 4 4 4 4 4 4 11.83c0 211.07 0 422.14.02 633.68-.44.47-.88.48-1.67.49z"/><path fill="#100E1A" d="M44.47 47.96c.4 3.06.63 6.04.63 9.02.02 179.86.02 359.72.02 539.57 0 1.5-.07 3-.24 4.94-1.03-.5-2.24-1.3-2.76-2.42-.44-.97-.12-2.3-.12-3.46 0-181.28 0-362.55.16-543.82 0-1-2.8-4.9 2.3-3.83z"/><path fill="#141218" d="M202.02 358V48.16h1.3v553.7h-1.3V358z"/><path fill="#171116" d="M600.87 44.26c-1.45.51-2.93.77-4.42.77-114.82.02-229.65.03-344.48.02-1 0-2-.09-3.43-.27.52-1 1.35-2.22 2.48-2.65 1.17-.45 2.63-.13 3.96-.13 113.1 0 226.18-.01 339.28.08 2.19 0 4.38 1.18 6.6 2.18z"/><path fill="#131015" d="M250.19 2.42c106.88-.37 213.92-.4 320.96-.42l74.38.01c.47.45.46.9.45 1.68-129.52.33-259.04.32-388.56.26-2.36 0-4.72-.77-7.23-1.53z"/><path fill="#100E1A" d="M196.9 44.33c-1.6.52-3.24.77-4.88.77-48.34.02-96.68 0-145.47-.08-.22-1.02-.21-2.56.29-2.75 1.18-.43 2.6-.27 3.93-.27 46.86 0 93.7-.02 140.56.08 1.84 0 3.68 1.22 5.56 2.25z"/><path fill="#1C1A1E" d="M489.1 434.9c.35.08.7.16 1.55.56 3.77.66 7.05 1 10.33 1.33 11.3 2.66 22.76 4.74 33.84 8.11 19.82 6.03 30.8 19.63 33.29 40.45 2.12 17.83.25 34.85-8.33 50.75-7.93 14.7-21.12 22.7-36.75 26.99-23.26 6.38-46.86 5.02-70.3 1.58-8.93-1.31-17.54-4.83-26.24-7.52-3.4-1.05-4.71-3.53-4.65-7.28.2-12.96.07-25.92.07-39.96 3.59 1.42 6.46 2.37 9.18 3.66 20.5 9.72 42.17 13.04 64.6 11.01 5.65-.5 11.46-2.4 16.6-4.9 9.16-4.47 12.49-13.49 10.43-25.22-1.35-7.69-8.24-13.48-17.71-15.38-14.94-3-30.06-5.43-44.7-9.53-25-6.99-37.54-24.2-38.33-50.2-.58-19.32 2.64-37.17 17.92-50.83 10.3-9.2 22.82-13.28 36.1-15.67 18.24-3.28 36.5-2.4 54.65.3 8.32 1.23 16.45 3.87 24.54 6.3 1.61.48 3.74 2.86 3.77 4.4.29 12.5.14 25 .08 37.49 0 .6-.37 1.21-.37 1.19-12.33-2.59-24.42-5.12-37.16-7.99-1.4-.65-2.14-1.23-2.88-1.24-8.9-.12-17.79-.22-26.68-.14-1.12.01-2.23 1.1-3.35 1.69h-.47s-.46.08-1.11.08c-8.83.61-16.5 6.07-18.01 12.36 0 0-.1.14-.43.47-2.23 4.84-2.98 9.3.25 13.59-.01.33.03.65.17 1.56 2.54 5.77 6 9.65 12.2 9.98.3.13.6.21 1.35.6 2.48.7 4.52 1.06 6.55 1.41z"/><path fill="#4D7572" d="M401.25 353.9c.58 1.3 1.66 2.6 1.68 3.9.12 11.75.09 23.5.02 35.25-.01.9-.67 1.78-1.85 2.82-26.86.15-52.88.16-78.9.09-2.1 0-4.2-.54-5.83-.93 26.62-.14 52.77-.26 78.93-.12 4.37.03 5.84-1.26 5.7-5.68-.3-9.15-.09-18.32-.1-27.48 0-6.57 0-6.57-6.63-6.57H276.33c-7.14 0-7.15 0-7.15 7.03l-.01 192.9c0 2-.21 3.98-.53 5.61-.35-2.67-.6-4.99-.6-7.3-.05-66.18-.07-132.37-.1-198.55.12-.29.3-.53 1.22-.8 44.48-.12 88.28-.14 132.09-.16z"/><path fill="#4D7572" d="M315.23 434.74c25.92.08 51.84.16 78.25.75.51 13.84.54 27.19.56 40.53h-.5c-24.47.03-48.49 0-72.5.1-2.61 0-5.21.65-7.77.6 1.86-.87 3.68-1.74 5.5-1.75 22.99-.1 45.98-.14 68.97-.01 3.87.02 5.34-1.13 5.24-5.12a413.6 413.6 0 0 1 .02-26.49c.19-4.91-1.18-6.68-6.39-6.62-22.32.27-44.65.15-66.98.03-1.94 0-3.87-1.02-5.46-1.69l1.06-.33z"/><path fill="#489790" d="M313.22 477.12c2.6-.35 5.21-1 7.81-1 24.02-.1 48.04-.07 72.52-.08-1.6.36-3.67 1.02-5.74 1.02-21.98.08-43.95.04-65.92.05-6.72 0-6.82.1-6.83 6.57-.02 10.16-.02 20.31 0 30.47 0 6.65.12 6.79 6.63 6.8 24.3 0 48.6-.02 72.9.02 1.98 0 3.95.35 5.77.8-26.3.26-52.46.23-78.62.28-1.94 0-3.88.54-6.17.85a7.66 7.66 0 0 1-2.23-3.22c.36-11.39.55-22.42.6-33.45 0-2.42-.53-4.84-.85-7.57.02-.72.08-1.13.13-1.54zM267.7 355.22c.27 65.83.29 132.02.33 198.2 0 2.31.26 4.63.68 7.55.37.96.44 1.3.43 2.04l-.2 1.21c-.67-1.76-1.9-3.53-1.91-5.3-.1-66.64-.08-133.28-.05-199.92 0-1.14.31-2.28.72-3.78z"/><path fill="#4D7572" d="M269.14 564.25c-.16-.3-.12-.57.45-1.17 42.75-.28 84.97-.23 127.2-.18.16 0 .4.07.48-.02 1.22-1.17 3.44-2.35 3.46-3.56.15-11.96-.05-23.92.04-36.07l.61-.58s.34.06.5.63c.16 13.96.17 27.34.17 40.73h-.5c-15.95.02-31.43.02-46.91.05l-84.9.18s-.4.03-.6 0z"/><path fill="#459B94" d="M400.88 353.68c-43.44.25-87.24.27-131.53.27 1.12-.36 2.7-.97 4.3-.97 40.98-.05 81.95-.04 122.93-.01 1.3 0 2.62.3 4.3.7z"/><path fill="#489790" d="M270.12 564.47c27.92-.27 56.22-.34 84.52-.4 15.48-.02 30.96-.02 46.92-.03-1.1.36-2.68 1.02-4.26 1.02-40.95.06-81.9.05-122.85.03-1.32 0-2.64-.27-4.33-.62z"/><path fill="#459B94" d="M315.19 434.3c-.2.51-.43.58-1.02.74-.35.08-.3.04-.26-.43.05-8.94.15-17.41.04-25.88-.04-3.6-.53-7.19-.85-11.13a16.54 16.54 0 0 1 2.8-2.46c2.1.28 4.2.81 6.3.82 26.02.07 52.04.06 78.56.1-1.6.36-3.7.96-5.8.96-24.44.07-48.88.04-73.33.05-6.34 0-6.56.2-6.56 6.35 0 10.15.04 20.29.12 30.87z"/><path fill="#4D7572" d="M315.92 522.87c1.94-.28 3.88-.81 5.82-.82 26.16-.05 52.31-.02 78.95-.02.5 0 .6.32.64.48-.09.28-.22.41-.99.66-15.26.09-29.9.08-44.53 0-13.3-.06-26.6-.2-39.9-.3z"/><path fill="#437E7A" d="M489.01 394.96c.7-.7 1.82-1.79 2.94-1.8 8.9-.08 17.79.02 26.68.14.74 0 1.48.6 2.45 1.24-10.4.39-21.03.46-32.07.42zM469.34 407.17c1.19-6.17 8.85-11.63 17.45-12.17-.14.65-.62 1.6-1.28 1.73-6.63 1.4-11.58 5.31-16.17 10.44z"/><path fill="#489790" d="M394.31 475.7c-.3-13.02-.32-26.37-.37-40.17.31.09.95.64.95 1.19-.06 12.89-.2 25.77-.58 38.98zM402.32 563.7c-.27-13.06-.28-26.44-.3-40.3.3.09.9.66.89 1.23-.07 12.92-.2 25.84-.6 39.08z"/><path fill="#437E7A" d="M481.06 432.58c-6.06-.02-9.52-3.9-11.97-9.44 3.96 2.8 7.9 5.96 11.97 9.44zM468.9 420.86c-3.3-3.8-2.55-8.26-.3-13.01.34 4 .36 8.26.3 13.01zM500.8 436.47c-3.1-.01-6.38-.35-9.88-1 3.09 0 6.4.34 9.88 1zM488.93 434.56c-1.86-.01-3.9-.37-6.14-1.06 1.84.02 3.9.37 6.14 1.06z"/><path fill="#201E20" d="M160.7 532.61c1.5 20.73-12.2 33.64-31.9 30.61-12.01-1.84-21.69-13.82-21.3-26.38.4-13.28 10.15-24.54 22.49-25.97 15.48-1.8 26.38 5.8 30.72 21.74z"/><path fill="#1B191D" d="M315.57 522.9c13.64.07 26.94.2 40.24.27 14.63.08 29.27.09 44.33.2.54 12.03.74 24 .59 35.95-.02 1.2-2.24 2.39-3.46 3.56-.09.09-.32.02-.49.02a75792 75792 0 0 1-127.1-.22c-.53-.41-.6-.75-.76-1.35.04-2.24.25-4.23.25-6.21.02-64.3.01-128.6.01-192.9 0-7.04.01-7.04 7.15-7.04h117.94c6.62 0 6.63 0 6.63 6.57.01 9.16-.2 18.33.1 27.48.14 4.42-1.33 5.7-5.7 5.68-26.16-.14-52.3-.02-78.93.12a8.83 8.83 0 0 0-3.37 3.04c-.1 11.5-.18 22.2-.13 32.89 0 1.37.65 2.75 1 4.12 0 0-.05.04-.05.07 1.94.59 3.87 1.6 5.81 1.61 22.33.12 44.66.24 66.98-.03 5.21-.06 6.58 1.7 6.4 6.62a413.6 413.6 0 0 0-.03 26.49c.1 3.99-1.37 5.14-5.24 5.12-22.99-.13-45.98-.09-68.97 0-1.82.02-3.64.89-5.5 1.76-.1.8-.16 1.22-.28 2.4 0 14.16.07 27.53.14 40.91.7.97 1.4 1.94 2.44 2.87z"/><path fill="#4D7572" d="M313.34 519.68c-.28-13.03-.35-26.4-.32-40.24.4 1.95.93 4.37.92 6.79-.05 11.03-.24 22.06-.6 33.45zM313.91 434.6c-.39-.9-1.03-2.27-1.04-3.64-.05-10.7.02-21.39.16-32.55.39 3.13.88 6.73.92 10.32.11 8.47.01 16.94-.04 25.88z"/></svg>